<svg width="174" height="58" viewBox="0 0 174 58" fill="none" xmlns="http://www.w3.org/2000/svg">
<path d="M18.4131 34.7061H11.4697L11.1621 35.6509C10.9277 36.2808 10.9424 36.8081 11.2061 37.2329C11.4697 37.6431 12.0264 37.8481 12.876 37.8481H14.1284V46H0.439453V37.8481H1.34033C2.39502 37.8481 3.09814 37.6431 3.44971 37.2329C3.81592 36.8081 4.16748 36.1929 4.50439 35.3872L9.00879 24.269C9.33105 23.4194 9.38232 22.7969 9.1626 22.4014C8.95752 21.9912 8.32031 21.7861 7.25098 21.7861H6.78955V13.6343H29.3774V21.7861H28.938C27.854 21.7861 27.2021 21.9985 26.9824 22.4233C26.7773 22.8481 26.8433 23.4634 27.1802 24.269L31.6846 35.3872C31.8604 35.7974 32.0142 36.1562 32.146 36.4639C32.2925 36.7568 32.4683 37.0132 32.6733 37.2329C32.8784 37.438 33.1494 37.5918 33.4863 37.6943C33.8379 37.7969 34.2847 37.8481 34.8267 37.8481H35.7275V46H15.7544V37.8481H16.9629C17.7979 37.8481 18.3545 37.6431 18.6328 37.2329C18.9258 36.8081 18.9551 36.2808 18.7207 35.6509L18.4131 34.7061ZM12.5903 31.2783H17.2705L15.0732 24.5327H14.8975L12.5903 31.2783ZM53.3496 21.7861V35.4751C53.3496 36.4565 53.5913 37.1011 54.0747 37.4087C54.5581 37.7017 55.1733 37.8481 55.9204 37.8481H56.5137V46H38.0127V37.8481H38.8696C39.646 37.8481 40.2173 37.6064 40.5835 37.123C40.9644 36.625 41.1548 36.0903 41.1548 35.519V32.4209C41.1548 31.5713 40.8838 30.9487 40.3418 30.5532C39.8145 30.1431 39.1992 29.938 38.4961 29.938H38.0127V21.7861H53.3496ZM40.8032 16.3809C40.8032 15.1211 41.2793 14.0444 42.2314 13.1509C43.1982 12.2573 44.5679 11.8105 46.3403 11.8105C48.1421 11.8105 49.5264 12.2573 50.4932 13.1509C51.4746 14.0444 51.9653 15.1211 51.9653 16.3809C51.9653 17.6699 51.4746 18.7612 50.4932 19.6548C49.5264 20.5337 48.1421 20.9731 46.3403 20.9731C44.5679 20.9731 43.1982 20.5337 42.2314 19.6548C41.2793 18.7612 40.8032 17.6699 40.8032 16.3809ZM71.8066 21.7861L71.4331 27.8286H71.8066C72.3193 25.5142 73.1689 23.7637 74.3555 22.5771C75.5566 21.3906 77.1094 20.7974 79.0137 20.7974C80.1416 20.7974 81.1084 20.9805 81.9141 21.3467C82.7344 21.6982 83.3936 22.1743 83.8916 22.7749C84.3896 23.3755 84.7485 24.0713 84.9683 24.8623C85.188 25.6387 85.2979 26.4443 85.2979 27.2793C85.2979 27.9678 85.1953 28.6489 84.9902 29.3228C84.7852 29.9966 84.4556 30.6045 84.0015 31.1465C83.5474 31.6885 82.9614 32.1279 82.2437 32.4648C81.5259 32.7871 80.6396 32.9482 79.585 32.9482C78.1201 32.9482 76.9629 32.5747 76.1133 31.8276C75.2783 31.0806 74.8608 30.1797 74.8608 29.125C74.8608 28.6123 74.9194 28.1802 75.0366 27.8286C75.1538 27.4624 75.271 27.1694 75.3882 26.9497C75.52 26.7153 75.6079 26.5469 75.6519 26.4443C75.6958 26.3418 75.6445 26.2905 75.498 26.2905C75.1904 26.2905 74.8535 26.6421 74.4873 27.3452C74.1357 28.0483 73.96 29.1543 73.96 30.6631V35.6948C73.96 36.4712 74.0918 37.0278 74.3555 37.3647C74.6338 37.687 75.1611 37.8481 75.9375 37.8481H77.2559V46H58.7549V37.8481H60.0513C60.6519 37.8481 61.106 37.6577 61.4136 37.2769C61.7358 36.8813 61.897 36.4126 61.897 35.8706V31.6958C61.897 31.0073 61.6919 30.5459 61.2817 30.3115C60.8862 30.0625 60.4321 29.938 59.9194 29.938H58.7549V21.7861H71.8066ZM119.443 35.6948C119.443 36.4712 119.575 37.0278 119.839 37.3647C120.117 37.687 120.645 37.8481 121.421 37.8481H122.146V46H107.38V31.9595C107.38 31.3882 107.322 30.9341 107.205 30.5972C107.087 30.2456 106.926 29.9819 106.721 29.8062C106.531 29.6157 106.304 29.4912 106.04 29.4326C105.791 29.374 105.549 29.3447 105.315 29.3447C104.348 29.3447 103.682 29.623 103.315 30.1797C102.964 30.7363 102.788 31.5273 102.788 32.5527V35.6948C102.788 36.4712 102.92 37.0278 103.184 37.3647C103.462 37.687 103.989 37.8481 104.766 37.8481H105.491V46H87.583V37.8481H88.8794C89.48 37.8481 89.9341 37.6577 90.2417 37.2769C90.564 36.8813 90.7251 36.4126 90.7251 35.8706V31.6958C90.7251 31.0073 90.52 30.5459 90.1099 30.3115C89.7144 30.0625 89.2603 29.938 88.7476 29.938H87.583V21.7861H100.635L100.173 27.8286H100.547C100.869 25.5728 101.777 23.8369 103.271 22.6211C104.78 21.4053 106.963 20.7974 109.819 20.7974C110.889 20.7974 111.885 20.9438 112.808 21.2368C113.745 21.5151 114.573 21.9473 115.291 22.5332C116.023 23.1191 116.594 23.8589 117.004 24.7524C117.429 25.6313 117.671 26.6567 117.729 27.8286H118.037C118.169 26.7153 118.491 25.7192 119.004 24.8403C119.531 23.9468 120.19 23.207 120.981 22.6211C121.787 22.0352 122.666 21.5884 123.618 21.2808C124.585 20.9585 125.596 20.7974 126.65 20.7974C128.599 20.7974 130.188 21.083 131.418 21.6543C132.649 22.2256 133.608 22.9507 134.297 23.8296C134.985 24.6938 135.454 25.6387 135.703 26.6641C135.967 27.6748 136.099 28.627 136.099 29.5205V35.6948C136.099 36.4712 136.23 37.0278 136.494 37.3647C136.772 37.687 137.3 37.8481 138.076 37.8481H139.241V46H124.036V31.9595C124.036 31.3882 123.97 30.9341 123.838 30.5972C123.721 30.2456 123.567 29.9819 123.376 29.8062C123.186 29.6157 122.959 29.4912 122.695 29.4326C122.446 29.374 122.205 29.3447 121.97 29.3447C121.003 29.3447 120.337 29.623 119.971 30.1797C119.619 30.7363 119.443 31.5273 119.443 32.5527V35.6948ZM152.336 24.8403C151.589 24.8403 150.945 24.8989 150.403 25.0161C149.875 25.1187 149.421 25.2432 149.041 25.3896C148.66 25.5361 148.345 25.7046 148.096 25.895C147.847 26.0708 147.627 26.2319 147.437 26.3784L147.656 26.5981C147.935 26.4517 148.235 26.3052 148.557 26.1587C148.894 26.0122 149.319 25.939 149.832 25.939C150.696 25.939 151.443 26.2246 152.073 26.7959C152.703 27.3525 153.018 28.2461 153.018 29.4766C153.018 30.6484 152.534 31.5933 151.567 32.311C150.615 33.0142 149.333 33.3657 147.722 33.3657C146.184 33.3657 144.954 32.9263 144.031 32.0474C143.123 31.1538 142.668 29.894 142.668 28.2681C142.668 27.3745 142.917 26.4883 143.416 25.6094C143.914 24.7158 144.683 23.9175 145.723 23.2144C146.777 22.5112 148.11 21.9326 149.722 21.4785C151.348 21.0244 153.303 20.7974 155.588 20.7974C158.313 20.7974 160.54 21.0537 162.268 21.5664C163.997 22.0791 165.337 22.7383 166.289 23.5439C167.256 24.3496 167.915 25.2651 168.267 26.2905C168.633 27.3159 168.816 28.3486 168.816 29.3887V37.98C168.816 39.313 168.86 40.2212 168.948 40.7046C169.036 41.1733 169.365 41.4077 169.937 41.4077C170.391 41.4077 170.706 41.1953 170.881 40.7705C171.072 40.3311 171.167 39.584 171.167 38.5293V35.7827H173.672V38.5732C173.672 39.8916 173.562 41.0635 173.342 42.0889C173.123 43.0996 172.705 43.9712 172.09 44.7036C171.475 45.4214 170.64 45.9634 169.585 46.3296C168.53 46.7104 167.183 46.9009 165.542 46.9009C164.062 46.9009 162.832 46.7397 161.851 46.4175C160.884 46.1099 160.115 45.7217 159.543 45.2529C158.972 44.7842 158.562 44.3008 158.313 43.8027C158.079 43.29 157.961 42.8359 157.961 42.4404H157.61C157.522 43.041 157.266 43.6123 156.841 44.1543C156.431 44.6963 155.852 45.1797 155.105 45.6045C154.373 46.0146 153.486 46.3442 152.446 46.5933C151.421 46.8569 150.249 46.9888 148.931 46.9888C147.671 46.9888 146.521 46.8643 145.481 46.6152C144.456 46.3809 143.577 46.0073 142.844 45.4946C142.126 44.9673 141.562 44.2935 141.152 43.4731C140.757 42.6382 140.559 41.6494 140.559 40.5068C140.559 39.1006 140.955 37.9946 141.746 37.189C142.537 36.3687 143.533 35.7241 144.734 35.2554C145.935 34.772 147.239 34.3838 148.645 34.0908C150.066 33.7832 151.377 33.417 152.578 32.9922C153.779 32.5674 154.775 32.0181 155.566 31.3442C156.357 30.6704 156.753 29.7183 156.753 28.4878C156.753 27.3892 156.409 26.5103 155.72 25.8511C155.032 25.1772 153.904 24.8403 152.336 24.8403ZM156.753 34.3545C156.431 34.8232 156.028 35.2041 155.544 35.4971C155.061 35.7754 154.592 36.0537 154.138 36.332C153.699 36.5957 153.311 36.918 152.974 37.2988C152.651 37.665 152.49 38.1631 152.49 38.793C152.49 39.2764 152.622 39.7158 152.886 40.1113C153.149 40.4922 153.662 40.6826 154.424 40.6826C155.112 40.6826 155.669 40.4189 156.094 39.8916C156.533 39.3496 156.753 38.5952 156.753 37.6284V34.3545Z" fill="white"/>
</svg>
